<?xml version="1.0"?><svg version="1.2" baseProfile="tiny-ps" viewBox="0 0 300 300" xmlns="http://www.w3.org/2000/svg" xmlns:xlink="http://www.w3.org/1999/xlink"><title>NIKHIL</title><g><g fill="#f6ead9" transform="matrix(.1 0 0 -.1 0 300)"><path d="M0 1500V0h3000v3000H0V1500z"/></g><g fill="#d6cec3" transform="matrix(.1 0 0 -.1 0 300)"><path d="M0 1500V0h3000v3000H0V1500zm1144 1070c223-328 298-437 373-545 46-66 90-132 98-147l16-28h-428l-15 18c-8 9-58 80-110 157s-142 209-200 294-115 161-126 169l-22 14v-652h-90v709l-19 11-20 10H500v100l286-2 287-3 71-105zm1386 60v-50h-17c-10 0-33-9-51-20l-33-20-19-43-20-42v-605h-90v575l-10 39c-5 22-17 51-28 65l-18 26-47 15-47 15v95h380v-50zM753 1635l88-130 15 1 14 2v-58h-39l-93 137c-51 75-104 148-118 161l-25 24 35-4 35-3 88-130zm121 120c-4-8-7-15-9-15s-5 7-9 15l-5 15h28l-5-15zm178 6-13-8 3-151 3-152h-69l12 12 12 12v257l-10 20-11 19h86l-13-9zm168-5-12-15 4-145 3-146h-69l12 12 12 12v272l-12 12-12 12h86l-12-14zm227 3-19-11-11 11-11 11h30l29-1-18-10zm184-3-11-14-1-132v-132l12-14 11-14-43 1c-24 0-38 3-31 6l12 5v284l-12 12-12 12h86l-11-14zm240 0-12-14 3-146 3-146h-67l11 14 12 15-1 63c-1 35-1 68 0 73 1 6 1 37 0 70l-2 60-10 12-10 13h84l-11-14zm174-146v-160h-60l3 146 3 146-12 14-11 14h77v-160zm171 144-16-15v-289h-45v320h76l-15-16zm-841-206c26-40 55-79 63-85l16-13h-84v16c0 16-58 107-73 113l-8 3 17 19c9 10 18 19 19 19s24-33 50-72zm1065-73v-25h-52l23 25c30 30 29 30 29 0zm-1825-15 6-10h-32l6 10c3 6 8 10 10 10s7-4 10-10zm115-415V749l14-33 14-33 29-21c16-11 41-24 56-27l27-7v-98H500v98l33 11 34 11 27 29 28 29 9 38 9 39v555h90v-295zm1325 188c38-57 106-155 149-218l79-116 8 13 9 13v415h90V530h-297l-93 138c-131 192-241 354-353 519-53 78-97 144-97 147 0 4 98 5 217 4l218-3 70-102zm-870-853 25-23v-49c0-27-4-58-10-68l-10-18-31-11c-18-6-52-11-75-11h-44v212l60-4 60-4 25-24zm125-55v-84l19-11c11-5 29-10 40-10h20l15 22 16 22v146h20V231l-22-15-22-16h-72l-20 14-19 14-3 91-4 91h32v-85zm232-7 3-93 48-3 47-3v-19h-120v210h19l3-92zm263 46c10-26 26-73 35-105l18-59h-28l-6 25-6 25h-106l-6-25-6-25h-28l34 97c42 115 40 113 63 113h18l18-46zm177-31 24-78h27l25 78 24 77h48V200h-30v142l-12-4-12-4-21-65-20-64h-30l-24 68c-13 37-27 67-32 67h-9V200h-30v210h49l23-77zm-901 47-12-7 3-74 3-74 38 1 39 1 16 17 17 17v88l-11 11c-6 6-27 15-47 19l-35 8-11-7zm670-32c-5-13-11-33-15-45l-7-23h71v14c0 23-22 76-31 76-5 0-13-10-18-22z"/></g><g fill="#aba9a5" transform="matrix(.1 0 0 -.1 0 300)"><path d="M0 1500V0h3000v3000H0V1500zm1350 776c151-222 276-409 278-415l4-11h-441l-197 291c-203 299-239 349-255 349h-9v-640H630v709l-19 11-20 10H490v100h585l275-404zm1190 354v-50h-16c-9 0-34-10-55-22l-38-21-18-36-18-36-3-307-3-308h-99v621l-15 29c-19 36-58 67-95 75l-30 7v98h390v-50zM755 1640c48-71 92-130 97-130h8v236l-12 12-12 12h58l-12-12-12-12v-306h-39l-102 150c-56 83-106 150-111 150h-8v-269l10-6c6-3 10-10 10-16v-9h-19c-11 0-23 5-26 10l-6 10h21v298l-12 5c-7 3 8 6 33 6l46 1 88-130zm297 118-12-12v-275l10-6c6-3 10-10 10-16v-9h-79l-6 10-6 10h21v286l-12 12-12 12h98l-12-12zm174-4-16-15v-219h10c5 0 50 48 100 108l90 107v35l33-1h32l-20-9c-18-7-99-94-119-127l-7-12 56-81 57-80h14c8 0 14-5 14-11v-10l-52 3-53 3 3 14 3 13-37 54c-21 30-39 54-40 54-2 0-22-23-44-52l-41-51 11-11c5-5 10-14 10-18v-8h-75l3 156 3 157-13 8-13 9h106l-15-16zm406-64-4-80h189l-5 73-5 72-11 7-11 8h106l-15-16-16-15v-268l10-6c6-3 10-10 10-16v-9h-75l3 80 4 80h-190l4-40c2-22 6-58 8-80l4-40h-80l8 18 9 17v276l-15 9-15 10h90l-3-80zm420 68-12-12v-286h21l-6-10-6-10h-79v9c0 6 5 13 10 16l10 6v260l-10 20-11 19h95l-12-12zm170-1-11-13-2-144-1-145 65-3 66-3 33 9 33 8 23 35 23 34-3-45-3-45-140-3c-76-1-146 0-154 3l-14 6 11 11 12 12v272l-12 12-12 12h96l-10-13zM730 1063V775l10-37 10-36 36-31 35-31h49V530H490v101l18 5c9 3 32 13 51 22l34 17 19 35 18 35v592l7 6c3 4 26 7 50 7h43v-287zm1366 115c65-95 133-195 153-223l36-50 5 220 5 220 48 3 47 3V530h-152l-153 1-175 259c-96 143-219 324-272 402-54 79-98 146-98 151v7h439l117-172zm-909-792 28-24V248l-28-24-28-24h-119v210h119l28-24zm123-54v-78l12-12c15-15 61-15 76 0l12 12v156h40V273l-11-31-11-32-34-9-34-9-22 5c-13 3-31 13-40 21l-18 15v177h30v-78zm240-11v-90l47-3 46-3 5-12 4-13h-142v210h40v-89zm276-6c18-49 33-96 33-102l1-13h-30l-10 25-10 25h-90l-6-25-6-25h-19c-10 0-19 2-19 4 0 3 16 50 36 106l37 101 25-3 26-3 32-90zm164 11 26-80 8 12c4 7 18 43 30 80l23 67 26 3 27 3V200h-30v129l-9 6-10 5-22-70-23-70h-34l-22 65c-12 36-26 67-31 70l-9 6V200h-30v211l27-3 26-3 27-79zm-920-21v-75h77l16 18 17 19v80l-18 16-19 17h-73v-75zm677 20-16-45h70l-7 23c-13 41-23 67-28 67-2 0-11-20-19-45z"/></g><g fill="#757a80" transform="matrix(.1 0 0 -.1 0 300)"><path d="M0 1500V0h3000v3000H0V1500zm1357 770 283-415-227-3-227-2-7 12c-32 57-423 618-430 618h-9v-630H630v709l-11 6c-6 4-37 9-70 12l-59 6v107l292-2 293-3 282-415zm1181 362 3-52-18-6c-10-3-33-12-51-20l-32-14-20-32-20-33v-625h-110v611l-20 40-21 40-32 14c-18 7-40 16-49 19l-18 5v111l193-2 192-3 3-53zM705 1718c25-35 67-96 93-135 26-40 50-73 55-73h7v239l-10 6-10 6 5 10c4 5 15 9 27 9h20l-8-17-9-18-3-152-3-153h-44l-98 145c-54 80-103 145-108 145h-10l3-127 3-128 9-17 8-18h-52v9c0 6 5 13 10 16l10 6v289h-10c-5 0-10 5-10 10v10h80l45-62zm349 45-9-18v-270l9-17 8-18h-92v9c0 6 5 13 10 16l10 6v264l-9 15c-15 22-4 30 41 30h40l-8-17zm179 10 7-6-10-13-11-12 3-112 3-112 90 110 90 111v36l29 3 28 4 10-10 9-9-24-7-24-6-46-59c-26-33-47-63-47-67s21-41 48-81l47-73 23-6c12-4 22-10 22-15v-9h-120v41l-30 45c-17 24-34 44-38 43-4 0-22-18-39-41-33-40-42-68-23-68 6 0 10-4 10-10v-10h-100v9c0 6 5 13 10 16l10 6v278l-10 6-10 6 5 10 6 9h38c21 0 41-3 44-7zm412-2 5-10-10-6-10-6v-129h185l-3 62c-2 35-8 68-13 74l-9 11 7 6c3 4 23 7 44 7h38l6-9 5-10-10-6-10-6v-289h10c6 0 10-4 10-10v-10h-100v9c0 6 5 13 10 16l10 6v129h-185l3-70 4-70h9c5 0 9-4 9-10v-10h-100v9c0 6 5 13 10 16l10 6v278l-10 6-10 6 5 10 6 9h78l6-9zm410 0 5-10-10-6-10-6v-278l10-6c6-3 10-10 10-16v-9h-100v10c0 6 5 10 10 10h10v289l-10 6-10 6 5 10 6 9h78l6-9zm169-8-9-18-3-142-3-143h177l16 13c9 6 23 26 32 42l15 30 1-52v-53h-312l8 18 9 17 3 131 3 132-15 15-16 15 13 5c6 3 29 6 51 6l38 1-8-17zM740 1035l5-310 13-23c15-27 69-62 95-62h17V530H490v107l29 6c15 3 42 18 59 32l31 26 11 37 10 37v576l53-3 52-3 5-310zm1395 92 150-222 3 223 2 222h110V530h-316l-260 382c-142 209-267 394-277 410l-19 28h229l228-1 150-222zm-954-730c25-19 39-52 39-92v-36l-15-29-15-29-41-11c-22-6-57-10-77-8l-37 3-3 108-3 107h68l68-1 16-12zm129-58v-70l10-20 11-19h55l12 12 12 12v156h40V242l-19-23-19-24h-101l-18 18-18 18-3 89-4 90h42v-71zm240-19v-90h101l-3-17-3-18-68-3-67-3v221h40v-90zm282-14c36-102 37-116 12-116h-13l-13 28-13 27-37 3-37 3-16-30-16-31h-29v13c0 13 35 118 59 180l11 27h56l36-104zm158 27c14-40 28-73 31-73s16 34 29 75l24 75h56V189l-17 3-18 3-5 70-5 70-23-67c-13-37-28-71-34-74l-10-6-13 13c-7 8-20 38-30 66-9 29-21 55-26 58l-9 6V189l-17 3-18 3-3 108-3 108 33-3 32-3 26-72zm-916 33c-3-7-4-40-2-72l3-59 32-3 32-3 20 20 21 21v70l-20 20-20 20h-61l-5-14zm678-25c-7-19-12-40-12-47v-14h50v18c-1 9-7 30-14 47l-12 30-12-34z"/></g><g fill="#354253" transform="matrix(.1 0 0 -.1 0 300)"><path d="M0 1500V0h3000v3000H0V1500zm1217 983c78-115 205-301 282-415 78-114 141-212 141-218v-10h-448l-39 54c-21 30-101 148-178 262s-160 235-185 268l-45 61-5-320-5-320H625l-3 357-2 358-23 5c-12 2-42 6-67 7l-45 3-3 44c-2 24-1 50 2 57l5 14h588l140-207zm1323 148v-59l-34-6-34-7-31-35c-17-19-32-36-33-37s-5-146-8-322l-5-320-52-3-53-3v596l-10 36-10 35-24 23c-13 13-41 29-63 36l-38 13-3 42c-2 23-1 49 2 56l5 14h391v-59zM757 1650l88-131 3 112 3 111-11 12-10 13 7 6c9 10 63 9 63-1 0-4-4-12-10-18l-9-9-3-150-3-150-27-3-27-3-98 146-98 146-3-127-3-127 11-11c5-5 10-14 10-18v-8h-70v10c0 6 5 10 10 10h10v300h-21l6 10 6 10h88l88-130zm313 121c0-6-4-13-10-16l-10-6v-278l10-6c6-3 10-10 10-16v-9H960v10c0 6 5 10 10 10h10v289l-10 6-10 6 5 10 6 9h99v-9zm170 1c0-4-5-13-10-18l-11-11 3-108 3-109 87 104 88 105v45h80v-9c0-5-9-13-20-16l-21-7-49-59c-28-33-50-62-50-65s23-39 51-81l51-75 19-5c11-3 19-9 19-14v-9h-132l6 16 6 17-31 48c-17 27-33 49-34 49-2 0-20-20-41-45l-37-46 11-11c7-7 12-16 12-20v-8h-100v8c0 4 5 13 11 19l10 10-3 134-3 134-9 18-8 17h102v-8zm410-1c0-6-4-13-10-16l-10-6v-129h182l-4 63c-2 34-8 70-12 80l-8 17h102v-9c0-6-4-13-10-16l-10-6v-278l10-6c6-3 10-10 10-16v-9h-100v8c0 4 5 13 11 19l10 10-3 59-3 59-87 3-88 3v-130l10-6c6-3 10-10 10-16v-9h-100v8c0 4 5 13 11 19l10 10-3 134-3 134-9 18-8 17h102v-9zm414 0 6-9-15-12-15-12v-257l15-15c23-23 19-26-40-26h-55v9c0 6 5 13 10 16l10 6v278l-10 6c-5 3-10 10-10 16v9h99l5-9zm169 2 7-6-10-11-9-12-3-142-3-142h162l27 21 26 20v41l13-4 12-5v-88l-162-3-163-2v9c0 5 5 13 10 16l10 6v278l-10 6c-5 3-10 10-10 16v9h48c27 0 52-3 55-7zM740 1049V749l11-22c6-12 23-34 37-49l26-28 33-6 33-6V530H480v110h16c9 0 31 7 50 16l34 16 20 33 20 32v613h120v-301zm1391 90c78-115 146-212 151-215l8-5v431h110V530l-161 2-162 3-273 400c-150 220-273 403-273 408l-1 7h458l143-211zm-934-753 22-26 7-35 6-34-18-38-19-38-25-12-25-13h-115v233l72-5 72-6 23-26zm121-53 3-81 14-12 15-12 24 6 24 6 6 22c3 13 6 53 6 91v67h40V236l-22-23-21-23h-88l-24 25-25 24v182l23-3 22-3 3-82zm232-8v-95h100v-41l-72 3-73 3-3 99c-1 55 0 106 2 113l5 13h41v-95zm282-10c20-55 37-106 37-112l1-13h-48l-6 25-6 25h-88l-6-25-6-25h-25c-14 0-25 2-25 5 0 9 69 206 76 217l6 9 26-3 27-3 37-100zm158 28c14-40 27-73 30-73s16 33 30 73l25 72h60V195l-22-3-22-3-3 63-3 63-24-63-24-63-20 3-20 3-21 60-21 60-5-60-5-60-22-3-23-3v232l32-3 32-3 26-72zm-910-38v-75h48l22 18 22 18v78l-22 18-22 18h-48v-75zm677 40c-3-11-8-30-12-42l-6-23h51v13c-1 6-7 26-14 42l-13 30-6-20z"/></g><g fill="#041530" transform="matrix(.1 0 0 -.1 0 300)"><path d="M0 1500V0h3000v3000H0V1500zm1177 1052c50-75 131-195 180-267 207-303 285-419 290-432l5-13h-469l-55 83c-155 229-323 476-347 507l-26 35-5-310-5-310-62-3-63-3v711l-26 10c-14 6-45 10-70 10h-44v120h303l302-1 92-137zm1373 78v-59l-36-7-36-7-34-33-34-34-2-323-3-322-62-3-63-3v632l-15 28-14 29-44 21c-24 12-49 21-55 21h-12v120h410v-60zM679 1769c11-12 53-72 93-132l73-111 3 110 3 109-11 3c-5 2-10 10-10 18v14l24 6 25 6 10-7c14-8 14-35 1-35h-9l-3-157-3-158-26-3-26-3-94 140c-52 77-98 140-102 141h-8l4-117c2-65 6-127 8-138l4-20-24-3-23-4-11 11-11 11 12 12 12 12v272l-11 11-11 11 6 11 7 11h78l20-21zm389 6c3-3 0-15-7-28l-12-23 4-124c2-69 6-134 8-145l4-20-44-3-44-3-10 10-11 11 12 12 12 12v265l-10 6c-5 3-10 12-10 20v14l18 5c19 5 82 0 90-9zm181-1c3-2-1-10-7-16l-12-12v-206l85 101 85 102v37l23 1c32 2 51-2 61-11l9-9-25-10-25-9-47-54c-25-29-46-58-46-63 0-6 21-43 48-81l47-69 23-10 22-10-3-10-4-10h-128l-3 24c-2 13-15 42-29 63l-24 39-15-12c-8-7-24-25-35-41l-21-29 12-14 12-14-7-11-6-10h-98l-7 11-6 11 11 11 11 11v275l-10 6c-15 10-12 23 8 29 18 5 93-2 101-10zm409 1c3-3 0-11-6-17l-12-12v-126h165l-3 62-4 63-10 13-11 12 7 8c10 9 103 8 113-1l7-7-12-12-12-12v-272l11-11 11-11-6-11-7-11h-98l-7 11-6 11 11 11 11 11v116h-165l3-57 4-58 10-12 10-12-7-11-6-10h-98l-7 11-6 11 11 11 11 11v275l-10 6c-17 10-11 23 13 28 25 6 87 1 95-8zm390 9 22-6v-14c0-8-4-14-10-14h-10v-276l11-11 11-11-6-11-7-11h-99v14c0 8 5 18 10 21l10 6v268l-10 6c-5 3-10 12-10 20v14l18 4c26 7 45 7 70 1zm170 0 22-6v-14c0-8-4-14-10-14h-10v-290h139l24 11 24 11 17 35 17 36 10-10 10-10-3-49-3-49-164-3-163-3 8 23c4 13 9 81 11 152l4 129-10 10c-6 6-11 17-11 23v13l18 4c26 7 45 7 70 1zM750 1038l5-317 21-28 21-28 29-9c16-5 35-10 42-12l12-3V520H479l3 62 3 62 34 7 34 7 24 24 24 25 9 39 10 39v576l63-3 62-3 5-317zm1313 210c42-62 108-159 146-216l71-103 2 213 3 213h120V525l-161-3-162-2-53 77c-76 113-196 289-358 526-78 115-145 215-148 223l-5 14h469l76-112zm-884-842 27-15 12-26c14-31 16-84 2-119l-9-25-30-16-30-15h-121v230h121l28-14zm141-65v-80l16-15c18-19 20-19 45-6l19 11v169h60V243l-20-26-20-25-34-6-35-7-36 15-35 15-10 26-10 26v73c0 40 3 76 7 79 3 4 17 7 30 7h23v-79zm240-11v-90h39c22 0 46-3 54-6l15-5 32 96 32 96 35-3 36-3 38-110c21-60 38-111 39-112 0-2-14-3-30-3h-30l-10 25-10 25h-70l-10-25-10-25h-210v230h60v-90zm431 20c13-38 26-70 29-70s16 32 29 70l22 70h69V189l-27 3-28 3-5 45-5 45-16-45-16-45-24-3-25-3-20 58-19 58-3-57-3-58h-49v230h69l22-70zm-911-45v-65h69l11 19c5 11 10 32 10 46s-5 35-10 46l-11 19h-69v-65zm676 20c-10-26-7-35 9-35h15v13c0 6-4 18-9 25l-8 14-7-17z"/></g></g></svg>